<?xml version="1.0" standalone="no"?>
<!DOCTYPE svg PUBLIC "-//W3C//DTD SVG 20010904//EN"
 "http://www.w3.org/TR/2001/REC-SVG-20010904/DTD/svg10.dtd">
<svg version="1.0" xmlns="http://www.w3.org/2000/svg"
 width="739.000000pt" height="739.000000pt" viewBox="0 0 739.000000 739.000000"
 preserveAspectRatio="xMidYMid meet">

<g transform="translate(0.000000,739.000000) scale(0.100000,-0.100000)"
fill="#fff" stroke="none">
<path d="M4817 5409 c-158 -15 -294 -55 -470 -138 -49 -22 -93 -41 -98 -41 -5
0 -15 -13 -24 -30 l-16 -30 78 0 c128 0 137 -8 52 -43 -103 -43 -178 -121
-242 -249 -27 -56 -61 -108 -79 -123 -25 -21 -30 -30 -21 -43 12 -20 43 -26
88 -18 24 5 61 35 141 114 174 173 333 247 552 259 113 6 131 -3 57 -31 -25
-10 -45 -21 -45 -25 0 -4 -19 -18 -42 -31 -107 -60 -244 -219 -283 -330 -31
-88 -15 -91 63 -14 59 57 167 133 224 158 224 97 486 92 693 -11 70 -36 181
-122 257 -201 148 -154 227 -383 215 -626 -4 -92 -11 -130 -41 -220 -40 -122
-97 -232 -163 -315 -72 -90 -235 -242 -365 -340 -55 -41 -348 -225 -417 -263
-43 -22 -315 -205 -350 -234 -14 -12 -68 -57 -119 -99 -129 -107 -280 -275
-366 -408 -82 -127 -83 -130 -194 -437 -23 -62 -46 -179 -38 -188 3 -3 13 12
22 34 31 78 131 287 192 400 26 49 79 115 167 211 136 146 213 212 349 296 45
27 92 60 106 72 14 13 193 107 397 209 370 185 479 244 539 295 17 14 60 47
95 72 131 95 324 300 384 409 11 19 29 47 41 62 27 33 117 290 135 383 16 89
17 286 1 390 -22 138 -79 317 -141 445 -134 274 -478 555 -776 635 -196 52
-349 64 -558 44z"/>
<path d="M2270 5236 c-339 -53 -633 -198 -860 -426 -137 -137 -170 -182 -278
-380 -66 -120 -102 -200 -132 -292 -55 -172 -65 -261 -52 -495 9 -162 14 -199
37 -263 15 -41 39 -111 54 -155 31 -87 65 -160 104 -216 14 -21 28 -47 32 -60
8 -23 71 -101 184 -227 75 -84 217 -207 300 -261 66 -44 273 -149 351 -179
215 -82 271 -99 725 -219 194 -51 271 -76 363 -119 51 -24 105 -47 120 -50 15
-4 54 -19 87 -34 87 -41 163 -70 183 -70 26 0 160 -70 219 -115 33 -24 58 -53
67 -76 28 -70 38 -64 61 38 31 134 129 361 224 517 20 34 43 73 51 88 58 106
378 433 580 594 69 54 127 101 130 104 3 3 55 46 115 95 221 179 383 342 482
489 50 74 156 283 150 299 -2 6 -32 -27 -67 -74 -118 -154 -383 -394 -553
-500 -67 -41 -385 -275 -467 -342 -41 -34 -106 -93 -143 -131 -72 -72 -242
-293 -297 -386 -38 -63 -114 -212 -129 -252 -6 -16 -15 -28 -21 -28 -13 0
-109 61 -200 129 -115 85 -204 142 -330 211 -63 35 -126 71 -140 81 -25 16
-224 110 -350 164 -158 68 -508 238 -592 289 -145 88 -304 210 -372 287 -48
54 -42 15 9 -57 133 -187 319 -369 457 -447 25 -15 67 -43 93 -62 55 -42 332
-199 535 -303 219 -112 332 -176 470 -267 151 -99 183 -125 278 -218 72 -70
73 -73 67 -111 -3 -22 -8 -43 -11 -47 -7 -12 -79 32 -214 132 -152 113 -273
180 -482 265 -60 24 -130 55 -156 68 -26 13 -67 30 -92 37 -25 7 -148 52 -275
101 -245 95 -496 219 -606 299 -37 27 -71 49 -77 49 -27 0 -236 195 -279 260
-138 207 -203 409 -203 630 0 308 115 566 330 744 114 95 165 127 277 172 150
61 189 69 353 69 118 0 159 -4 220 -22 92 -26 191 -70 263 -117 30 -19 68 -41
85 -50 l31 -16 -9 30 c-21 73 -156 215 -270 284 -36 21 -74 47 -85 57 -11 9
-39 22 -62 28 -24 6 -60 16 -82 21 -21 6 -51 10 -67 10 -16 0 -36 4 -44 10
-20 13 18 26 137 46 249 42 501 -20 701 -173 48 -37 104 -73 124 -80 71 -24
186 11 133 41 -30 17 -107 96 -153 158 -79 107 -203 191 -322 218 -61 14 -97
29 -70 30 8 0 29 7 45 16 17 9 56 20 89 24 32 5 61 12 65 15 19 20 -112 68
-286 106 -125 27 -424 35 -553 15z"/>
<path d="M4120 5083 c-111 -37 -153 -71 -197 -161 -41 -87 -17 -172 48 -172
37 0 56 29 80 126 19 76 47 126 99 171 21 19 23 24 10 33 -16 11 -18 11 -40 3z"/>
<path d="M3240 5033 c-19 -3 -39 -8 -43 -13 -5 -4 20 -29 55 -56 70 -52 92
-80 127 -164 41 -99 59 -120 96 -120 25 0 39 7 55 28 22 26 22 39 7 122 -4 26
-66 105 -110 141 -42 35 -116 70 -140 67 -6 0 -28 -3 -47 -5z"/>
<path d="M4435 4894 c-96 -47 -165 -115 -216 -216 -66 -130 -62 -295 9 -371
24 -25 32 -28 72 -24 33 4 51 13 72 36 28 31 28 32 28 174 0 90 5 161 14 195
15 55 83 178 110 202 45 37 -16 40 -89 4z"/>
<path d="M4870 4785 c-84 -27 -160 -113 -160 -183 0 -31 36 -72 62 -72 20 0
72 61 98 116 23 46 47 70 108 108 23 15 40 31 37 36 -9 14 -92 11 -145 -5z"/>
<path d="M2839 4750 c-10 -7 4 -27 59 -83 102 -105 145 -206 172 -394 20 -142
57 -193 140 -193 36 0 51 5 67 23 36 39 44 65 44 156 1 76 -3 97 -27 152 -31
70 -91 154 -151 210 -48 46 -153 103 -218 119 -27 6 -55 13 -61 15 -6 2 -17
-1 -25 -5z"/>
<path d="M3986 4515 c-36 -35 -50 -76 -50 -146 -1 -43 18 -69 49 -69 35 0 47
24 46 91 0 42 6 77 19 107 25 55 25 52 -5 52 -15 0 -38 -14 -59 -35z"/>
<path d="M2375 4523 c-96 -11 -100 -31 -12 -63 53 -19 74 -35 147 -111 73 -76
90 -89 117 -89 23 0 37 7 48 24 46 69 -72 212 -190 231 -70 11 -79 12 -110 8z"/>
<path d="M3440 4426 c0 -7 7 -19 16 -27 25 -20 42 -60 54 -129 6 -36 16 -72
21 -82 13 -25 55 -23 73 4 45 64 -14 172 -125 229 -31 15 -39 16 -39 5z"/>
<path d="M4554 4422 c-7 -4 -24 -36 -40 -72 -23 -54 -28 -79 -27 -145 0 -70 4
-87 32 -140 44 -82 77 -115 116 -115 31 0 65 25 65 47 0 19 -38 130 -58 170
-32 62 -49 143 -44 206 4 51 2 57 -14 57 -11 0 -24 -4 -30 -8z"/>
<path d="M2845 4200 c-3 -5 3 -39 15 -76 32 -105 27 -167 -26 -301 -34 -86
-32 -128 7 -164 61 -57 125 -28 179 81 20 39 22 55 17 130 -6 104 -33 179 -92
258 -44 58 -89 90 -100 72z"/>
<path d="M3765 3812 c-32 -20 -63 -53 -158 -170 -75 -91 -122 -116 -193 -103
-45 9 -133 43 -194 76 -14 7 -46 16 -73 20 -133 20 -125 -105 14 -207 36 -26
72 -60 80 -75 24 -46 17 -147 -19 -248 -33 -93 -41 -162 -20 -183 7 -7 30 -12
51 -12 33 0 46 7 76 38 20 21 49 60 64 85 16 26 34 47 41 47 17 0 41 -28 59
-70 24 -53 42 -70 79 -76 53 -9 68 13 68 94 0 37 -5 94 -10 127 -5 33 -11 98
-12 145 -2 74 1 92 22 130 13 25 29 57 37 71 7 14 40 52 74 84 l61 58 27 -29
c52 -56 79 -99 86 -134 8 -44 -28 -135 -92 -232 -90 -136 -96 -205 -25 -280
27 -30 57 -35 82 -15 9 7 39 48 67 92 29 44 57 86 63 93 20 22 45 9 52 -28 4
-19 12 -60 18 -90 15 -78 42 -120 78 -120 53 0 60 21 71 193 5 87 13 163 19
170 5 6 13 27 17 45 5 25 21 44 63 75 31 23 87 71 124 106 56 53 68 70 68 96
0 69 -44 72 -171 10 -51 -25 -106 -45 -123 -45 -84 1 -166 43 -201 102 -39 68
-98 140 -128 159 -40 24 -103 24 -142 1z"/>
<path d="M4183 3795 c-38 -16 -73 -68 -73 -109 0 -20 12 -40 39 -67 46 -46 81
-50 132 -16 106 72 19 244 -98 192z"/>
<path d="M3382 3786 c-30 -16 -62 -65 -62 -94 0 -31 25 -77 52 -96 12 -9 42
-16 66 -16 106 0 141 136 54 208 -20 16 -80 15 -110 -2z"/>
</g>
</svg>
